<?xml version="1.0" standalone="no"?>
<!DOCTYPE svg PUBLIC "-//W3C//DTD SVG 20010904//EN"
 "http://www.w3.org/TR/2001/REC-SVG-20010904/DTD/svg10.dtd">
<svg version="1.0" xmlns="http://www.w3.org/2000/svg"
 width="700.000000pt" height="700.000000pt" viewBox="0 0 700.000000 700.000000"
 preserveAspectRatio="xMidYMid meet">
<metadata>
Created by potrace 1.14, written by Peter Selinger 2001-2017
</metadata>
<g transform="translate(0.000000,700.000000) scale(0.100000,-0.100000)"
fill="#000000" stroke="none">
<path d="M0 3500 l0 -3500 3500 0 3500 0 0 3500 0 3500 -3500 0 -3500 0 0
-3500z m1489 2099 c145 -385 268 -702 273 -705 5 -3 12 -4 14 -1 3 3 109 279
235 613 126 335 245 651 265 702 l36 92 244 0 244 0 0 -1005 0 -1005 -186 0
-186 0 6 633 c2 347 6 643 8 657 11 90 -45 -38 -262 -601 -135 -349 -251 -647
-257 -662 l-13 -27 -143 0 -144 0 -254 656 c-139 361 -257 661 -261 667 -17
29 -20 -14 -9 -165 6 -90 11 -387 11 -661 l0 -497 -185 0 -185 0 0 1005 0
1005 243 0 242 0 264 -701z m3361 35 c0 -714 1 -728 52 -827 33 -65 103 -132
171 -163 57 -27 71 -29 177 -29 110 0 118 1 182 33 41 20 81 50 103 75 45 52
89 144 104 215 7 36 11 268 11 707 l0 655 191 0 190 0 -4 -682 c-4 -729 -4
-720 -56 -871 -81 -233 -258 -400 -498 -469 -114 -33 -343 -33 -457 0 -230 66
-400 221 -481 437 -59 156 -58 142 -62 893 l-4 692 190 0 191 0 0 -666z m1614
-1425 c155 -52 263 -147 331 -292 68 -142 80 -237 49 -385 -39 -190 -158 -380
-301 -480 l-32 -23 -26 52 -26 51 58 61 c169 177 241 380 202 569 -42 203
-222 381 -424 419 -71 14 -83 22 -64 45 11 14 26 15 93 10 43 -4 106 -16 140
-27z m-994 -2319 l0 -1000 -190 0 -190 0 0 1000 0 1000 190 0 190 0 0 -1000z
m-3979 268 c145 -386 269 -703 275 -705 6 -2 127 304 276 699 l265 703 247 3
246 2 0 -1000 0 -1000 -186 0 -186 0 5 633 c3 347 8 644 12 660 13 48 -19 31
-38 -20 -10 -27 -124 -324 -254 -661 l-236 -613 -149 3 -149 3 -254 653 c-139
360 -256 656 -259 659 -16 16 -17 -19 -7 -164 6 -87 11 -382 11 -655 l0 -498
-185 0 -185 0 0 1000 0 1000 243 0 243 0 265 -702z"/>
</g>
</svg>
