<?xml version="1.0" standalone="no"?>
<!DOCTYPE svg PUBLIC "-//W3C//DTD SVG 20010904//EN"
 "http://www.w3.org/TR/2001/REC-SVG-20010904/DTD/svg10.dtd">
<svg version="1.0" xmlns="http://www.w3.org/2000/svg"
 width="700.000000pt" height="700.000000pt" viewBox="0 0 700.000000 700.000000"
 preserveAspectRatio="xMidYMid meet">
<metadata>
Created by potrace 1.14, written by Peter Selinger 2001-2017
</metadata>
<g transform="translate(0.000000,700.000000) scale(0.100000,-0.100000)"
fill="#000000" stroke="none">
<path d="M3278 6995 c-1 -1 -42 -5 -89 -9 -47 -4 -95 -8 -105 -10 -10 -2 -46
-7 -79 -11 -59 -7 -79 -10 -125 -20 -34 -7 -69 -14 -105 -21 -63 -11 -235 -57
-340 -91 -373 -120 -741 -311 -1050 -547 -44 -34 -82 -63 -85 -66 -3 -3 -34
-30 -70 -60 -228 -191 -513 -515 -681 -775 -238 -366 -441 -901 -503 -1320 -2
-16 -8 -50 -12 -75 -7 -48 -9 -60 -21 -190 -16 -166 -9 -567 12 -717 10 -67
14 -99 20 -148 4 -27 10 -66 15 -85 5 -19 12 -48 14 -65 28 -156 114 -435 189
-615 219 -526 539 -963 993 -1355 136 -117 384 -286 569 -386 251 -137 421
-206 745 -303 39 -12 153 -39 215 -52 135 -27 153 -30 224 -40 25 -3 57 -8 71
-10 163 -25 682 -25 842 1 13 2 46 7 73 10 71 10 87 13 115 18 14 3 43 8 65
12 22 4 67 14 100 22 33 8 70 17 83 19 74 14 461 144 487 164 6 4 21 11 35 15
41 12 309 148 392 198 148 89 194 121 323 217 152 114 216 169 344 294 83 81
121 122 252 270 145 165 351 486 463 721 110 231 219 541 262 750 16 75 54
300 60 350 4 33 9 76 11 95 8 71 10 517 3 595 -17 172 -22 220 -25 225 -2 3
-6 30 -10 60 -7 55 -58 298 -75 355 -116 393 -242 673 -445 990 -233 364 -610
748 -983 998 -417 281 -928 483 -1397 553 -27 4 -57 9 -65 10 -8 2 -44 6 -80
10 -36 3 -78 8 -95 11 -33 5 -531 13 -537 8z m482 -319 c64 -5 166 -18 245
-30 86 -14 120 -21 195 -38 47 -11 90 -21 95 -22 83 -19 273 -82 398 -132 671
-272 1237 -773 1591 -1408 166 -298 302 -676 351 -982 3 -16 7 -38 10 -49 2
-11 7 -45 10 -75 4 -30 8 -66 10 -80 24 -181 24 -591 1 -716 -2 -11 -7 -44
-10 -74 -8 -66 -12 -92 -31 -190 -9 -41 -17 -85 -20 -98 -7 -38 -65 -238 -89
-309 -64 -186 -178 -433 -272 -590 -44 -72 -155 -242 -175 -267 -5 -6 -30 -38
-56 -71 -152 -194 -323 -367 -534 -540 -51 -42 -168 -125 -264 -188 -429 -279
-971 -460 -1480 -494 -184 -12 -514 -5 -606 12 -9 2 -40 6 -69 10 -29 4 -60 8
-69 10 -9 1 -56 10 -106 19 -49 9 -103 21 -120 26 -16 5 -41 11 -55 14 -57 10
-273 81 -389 127 -791 316 -1432 948 -1760 1734 -18 44 -39 94 -46 110 -40 94
-117 369 -140 500 -8 44 -17 91 -20 105 -3 14 -8 49 -11 79 -3 30 -7 62 -9 72
-2 9 -6 66 -9 126 l-6 108 30 -75 c218 -544 653 -994 1191 -1231 134 -58 346
-126 459 -145 178 -31 230 -36 400 -39 131 -1 257 6 348 20 17 3 49 8 70 11
209 31 504 138 711 257 130 74 181 110 355 247 36 28 211 205 257 260 69 81
168 223 227 323 29 48 52 90 52 92 0 2 21 46 46 97 95 195 173 476 199 721 13
129 13 408 0 492 -3 22 -10 67 -16 100 -15 96 -18 115 -41 205 -139 566 -509
1069 -1018 1385 -172 106 -374 193 -585 250 -100 28 -104 28 -175 40 -25 4
-54 9 -65 11 -68 13 -174 19 -347 19 -108 0 -194 3 -190 6 22 18 363 137 439
154 10 2 63 15 118 29 123 30 338 63 470 72 55 4 101 7 102 8 5 4 336 -2 403
-8z m-1073 -585 c722 -107 1313 -588 1559 -1267 37 -102 78 -260 90 -339 3
-27 8 -59 10 -70 2 -10 6 -51 9 -90 l6 -70 -31 65 c-118 244 -347 482 -590
612 -115 62 -277 119 -374 133 -23 4 -59 11 -81 16 -62 14 -368 4 -450 -14
-283 -65 -499 -181 -696 -377 -118 -117 -210 -249 -283 -405 -28 -60 -80 -215
-91 -270 -27 -139 -33 -204 -30 -340 11 -544 336 -1026 836 -1240 147 -63 348
-107 493 -108 44 0 46 -1 24 -13 -70 -37 -346 -99 -490 -110 -140 -11 -358 -5
-441 12 -12 2 -38 7 -57 10 -19 3 -73 14 -120 26 -550 134 -1017 509 -1274
1024 -146 293 -207 568 -200 904 3 183 6 228 18 285 3 17 8 46 11 65 3 19 8
43 11 52 3 9 7 25 9 36 17 91 102 319 155 418 113 210 225 362 379 514 262
259 550 419 906 505 55 14 123 27 150 31 28 3 75 9 105 13 77 10 351 5 437 -8z
m583 -1325 c14 -3 39 -8 55 -11 17 -4 41 -10 55 -14 14 -5 43 -14 65 -21 22
-7 76 -30 120 -52 321 -159 540 -470 583 -828 40 -334 -70 -653 -308 -890
-109 -110 -206 -173 -370 -243 -180 -77 -477 -85 -686 -18 -376 122 -663 457
-724 846 -12 74 -16 307 -6 323 2 4 7 27 11 52 23 154 117 353 228 485 170
200 385 325 637 369 72 12 288 14 340 2z"/>
</g>
</svg>
