<svg width="120" height="120" viewBox="0 0 120 120" fill="none" xmlns="http://www.w3.org/2000/svg">
<circle cx="60" cy="60" r="60" fill="#282828"/>
<path d="M60 10C43.4703 10 28.7964 18.0678 19.6874 30.4666C18.3249 32.1864 17.1331 34.0474 16.1351 36.0274C12.2266 43.1489 10 51.3189 10 60C10 87.5702 32.4298 110 60 110C87.5702 110 110 87.5702 110 60C110 32.4298 87.5702 10 60 10ZM54.3043 72.2966C45.9826 72.2966 39.212 65.4407 39.212 57.0136C39.212 48.5865 45.9826 41.7305 54.3043 41.7305C62.626 41.7305 69.3966 48.5865 69.3966 57.0136C69.3966 65.4407 62.626 72.2966 54.3043 72.2966ZM54.3043 37.2498C43.5114 37.2498 34.7313 46.1153 34.7313 57.0136C34.7313 67.9118 43.5114 76.7773 54.3043 76.7773C54.4265 76.7773 54.5446 76.7605 54.6657 76.7583C51.5845 77.9639 48.2408 78.6309 44.7444 78.6309C29.5193 78.6309 17.132 66.0961 17.132 50.6898C17.132 46.1828 18.1995 41.9255 20.0805 38.1508C21.0405 36.4036 22.1154 34.7281 23.2893 33.1285C28.3559 26.8026 36.0896 22.7487 44.7444 22.7487C59.5089 22.7487 71.6032 34.5353 72.323 49.2956C69.3397 42.2237 62.3879 37.2498 54.3043 37.2498ZM60 105.519C35.4331 105.519 15.3617 85.9526 14.5207 61.587C18.9614 74.1197 30.8312 83.1127 44.7444 83.1127C62.4416 83.1127 76.8384 68.5683 76.8384 50.6909C76.8384 32.8134 62.4406 18.2691 44.7433 18.2691C43.64 18.2691 42.5493 18.326 41.4734 18.4355C47.1364 15.9012 53.4033 14.4796 59.9989 14.4796C85.098 14.4796 105.518 34.8999 105.518 59.9989C105.518 85.098 85.0991 105.519 60 105.519Z" fill="#E6FF00"/>
</svg>
