<svg width="2000" height="2000" viewBox="0 0 2000 2000" fill="none" xmlns="http://www.w3.org/2000/svg">
<g clip-path="url(#clip0_112_131)">
<rect width="2000" height="2000" fill="url(#paint0_linear_112_131)"/>
<path d="M210.6 200.2H349.8L501.8 602.6H508.2L660.2 200.2H800.2V773H693V490.6L699.4 395.4H693L547.4 773H463.4L317 395.4H310.6L317 490.6V773H210.6V200.2Z" fill="white"/>
<path d="M1499.6 785.8C1454.8 785.8 1415.6 776.2 1382 757C1348.93 737.8 1323.07 710.067 1304.4 673.8C1286.27 637.533 1277.2 594.6 1277.2 545V200.2H1384.4V551.4C1384.4 590.867 1394.27 622.867 1414 647.4C1434.27 671.4 1462.8 683.4 1499.6 683.4C1536.4 683.4 1564.67 671.4 1584.4 647.4C1604.67 622.867 1614.8 590.867 1614.8 551.4V200.2H1722V545C1722 592.467 1712.93 634.333 1694.8 670.6C1676.67 706.867 1650.8 735.133 1617.2 755.4C1583.6 775.667 1544.4 785.8 1499.6 785.8Z" fill="white"/>
<path d="M1454.6 1173.2H1562.6V1746H1454.6V1173.2Z" fill="white"/>
<path d="M210.6 1182.2H349.8L501.8 1584.6H508.2L660.2 1182.2H800.2V1755H693V1472.6L699.4 1377.4H693L547.4 1755H463.4L317 1377.4H310.6L317 1472.6V1755H210.6V1182.2Z" fill="white"/>
<g clip-path="url(#clip1_112_131)">
<path d="M1784.36 803.587C1805.4 805.697 1825.77 812.131 1844.2 822.485C1862.64 832.839 1878.73 846.891 1891.48 863.759C1904.23 880.626 1913.36 899.946 1918.29 920.506C1923.22 941.067 1923.85 962.424 1920.13 983.239C1909.75 1025.37 1887.27 1063.54 1855.46 1093.05C1823.65 1122.56 1783.9 1142.12 1741.11 1149.32C1754.64 1132.46 1769.77 1116.19 1785.09 1094.52C1800.4 1072.86 1767.93 1057.19 1757.6 1075.24C1737.53 1106.32 1715.79 1136.3 1692.47 1165.02C1690.91 1166.71 1689.73 1168.71 1689.03 1170.9C1688.33 1173.08 1688.11 1175.39 1688.4 1177.67C1688.68 1179.95 1689.46 1182.13 1690.69 1184.08C1691.91 1186.02 1693.54 1187.67 1695.47 1188.91C1727.77 1204.33 1761.94 1215.45 1797.12 1221.99C1799.47 1222.53 1801.93 1222.28 1804.11 1221.27C1806.3 1220.27 1808.09 1218.57 1809.2 1216.44C1811.22 1216.08 1813.11 1215.21 1814.69 1213.92C1814.69 1213.92 1810.66 1205.13 1809.14 1201.84L1750.52 1175.58C1801.83 1171.23 1850.19 1149.75 1887.83 1114.6C1925.46 1079.45 1950.19 1032.67 1958.03 981.779C1962.43 957.131 1961.14 931.805 1954.26 907.732C1947.38 883.66 1935.09 861.477 1918.33 842.878C1901.57 824.28 1880.78 809.756 1857.55 800.416C1834.32 791.075 1809.27 787.166 1784.3 788.985C1783.34 788.989 1782.39 789.182 1781.5 789.553C1780.62 789.924 1779.82 790.465 1779.14 791.146C1778.47 791.826 1777.93 792.633 1777.57 793.521C1777.21 794.408 1777.02 795.358 1777.03 796.317C1777.03 797.276 1777.22 798.224 1777.59 799.109C1777.96 799.993 1778.51 800.795 1779.19 801.471C1779.87 802.146 1780.67 802.68 1781.56 803.043C1782.45 803.406 1783.4 803.591 1784.36 803.587Z" fill="url(#paint1_linear_112_131)"/>
</g>
</g>
<defs>
<linearGradient id="paint0_linear_112_131" x1="1000" y1="0" x2="1000" y2="2000" gradientUnits="userSpaceOnUse">
<stop offset="0.3125" stop-color="#444379"/>
<stop offset="0.48802" stop-color="#684379"/>
<stop offset="0.655679" stop-color="#794356"/>
</linearGradient>
<linearGradient id="paint1_linear_112_131" x1="1640.58" y1="1075.38" x2="1964.9" y2="926.31" gradientUnits="userSpaceOnUse">
<stop stop-color="#FB5A00"/>
<stop offset="0.9999" stop-color="#FFD600"/>
<stop offset="1" stop-color="#4000A9"/>
</linearGradient>
<clipPath id="clip0_112_131">
<rect width="2000" height="2000" fill="white"/>
</clipPath>
<clipPath id="clip1_112_131">
<rect width="400" height="352.87" fill="white" transform="translate(1725.75 1254.8) rotate(-114.686)"/>
</clipPath>
</defs>
</svg>
