<svg width="2000" height="2000" viewBox="0 0 2000 2000" fill="none" xmlns="http://www.w3.org/2000/svg">
<g clip-path="url(#clip0_112_144)">
<rect width="2000" height="2000" fill="url(#paint0_linear_112_144)"/>
<path d="M543.2 169.8C532.8 193.8 521.6 223.4 509.6 259.4C480 349 396.8 606.6 362.4 689.8L244.8 693.8C288 591.4 371.2 329 397.6 236.2C408.8 196.2 412.8 170.6 416 144.2L543.2 169.8ZM686.4 428.2C744 514.6 825.6 672.2 862.4 761L754.4 809C718.4 712.2 644 546.6 587.2 469.8L686.4 428.2ZM236.8 657.8C348 653.8 609.6 624.2 721.6 609L744.8 711.4C626.4 726.6 351.2 755.4 243.2 766.6C223.2 769 192.8 773 168 776.2L148.8 658.6C176 659.4 211.2 658.6 236.8 657.8Z" fill="white"/>
<path d="M1478.4 149.8C1497.6 189.8 1546.4 313 1562.4 364.2L1461.6 399.4C1446.4 349 1401.6 232.2 1378.4 182.6L1478.4 149.8ZM1843.2 213.8C1834.4 233.8 1827.2 258.6 1822.4 276.2C1800 363.4 1754.4 490.6 1688.8 577C1604.8 688.2 1488 769 1374.4 812.2L1284.8 721.8C1393.6 690.6 1518.4 618.6 1600.8 515.4C1660.8 439.4 1710.4 302.6 1724 180.2L1843.2 213.8ZM1255.2 199.4C1280 250.6 1329.6 369.8 1348 423.4L1245.6 461C1228.8 409.8 1176 277.8 1153.6 235.4L1255.2 199.4Z" fill="white"/>
<path d="M827.2 1128.6C932.8 1141.4 1163.2 1188.6 1264 1223.8L1223.2 1323C1129.6 1288.6 903.2 1238.2 790.4 1223.8L827.2 1128.6ZM791.2 1343.8C905.6 1363 1108.8 1407 1208.8 1441.4L1169.6 1541.4C1078.4 1506.2 872.8 1459.8 753.6 1440.6L791.2 1343.8ZM749.6 1573.4C887.2 1594.2 1132.8 1651.8 1243.2 1692.6L1199.2 1792.6C1091.2 1748.6 837.6 1693.4 709.6 1673.4L749.6 1573.4Z" fill="white"/>
</g>
<defs>
<linearGradient id="paint0_linear_112_144" x1="1000" y1="0" x2="1000" y2="2000" gradientUnits="userSpaceOnUse">
<stop stop-color="#444379"/>
<stop offset="0.489583" stop-color="#684379"/>
<stop offset="1" stop-color="#794356"/>
</linearGradient>
<clipPath id="clip0_112_144">
<rect width="2000" height="2000" fill="white"/>
</clipPath>
</defs>
</svg>
